<?xml version="1.0" encoding="UTF-8" standalone="no"?>
<svg
   xmlns:dc="http://purl.org/dc/elements/1.1/"
   xmlns:cc="http://creativecommons.org/ns#"
   xmlns:rdf="http://www.w3.org/1999/02/22-rdf-syntax-ns#"
   xmlns:svg="http://www.w3.org/2000/svg"
   xmlns="http://www.w3.org/2000/svg"
   xmlns:sodipodi="http://sodipodi.sourceforge.net/DTD/sodipodi-0.dtd"
   xmlns:inkscape="http://www.inkscape.org/namespaces/inkscape"
   version="1.1"
   x="0px"
   y="0px"
   viewBox="0 0 328.94 112.6"
   xml:space="preserve"
   id="svg1093"
   sodipodi:docname="158426402-4ec6a68c-8f2c-4cb5-a6f2-42f4bc3986b8.svg"
   width="328.94"
   height="112.6"
   inkscape:version="1.0.2 (e86c8708, 2021-01-15)"><metadata
   id="metadata1099"><rdf:RDF><cc:Work
       rdf:about=""><dc:format>image/svg+xml</dc:format><dc:type
         rdf:resource="http://purl.org/dc/dcmitype/StillImage" /></cc:Work></rdf:RDF></metadata><defs
   id="defs1097" /><sodipodi:namedview
   pagecolor="#ffffff"
   bordercolor="#666666"
   borderopacity="1"
   objecttolerance="10"
   gridtolerance="10"
   guidetolerance="10"
   inkscape:pageopacity="0"
   inkscape:pageshadow="2"
   inkscape:window-width="1561"
   inkscape:window-height="856"
   id="namedview1095"
   showgrid="false"
   inkscape:zoom="1.4975602"
   inkscape:cx="164.47"
   inkscape:cy="56.3"
   inkscape:window-x="0"
   inkscape:window-y="25"
   inkscape:window-maximized="0"
   inkscape:current-layer="svg1093" />
<style
   type="text/css"
   id="style1021">
	.st0{fill:#253567;}
	.st1{fill:#2D6AB2;}
	.st2{fill:#FFFFFF;}
	.st3{fill:#9C9B9B;}
	.st4{fill:url(#SVGID_1_);}
</style>
<g
   id="Layer_1"
   transform="translate(-73.25,-72.9)">
	<g
   id="g1029">
		<g
   id="g1027">
			<polygon
   class="st0"
   points="91.62,185.16 91.62,103.24 128.36,123.02 128.36,185.16 146.73,185.16 146.73,112.45 73.25,72.9 73.25,185.16 "
   id="polygon1023" />
			<polygon
   class="st0"
   points="98.76,185.16 126.32,185.16 126.32,124.59 98.8,130.8 "
   id="polygon1025" />
		</g>
	</g>
	<g
   id="g1089">
		<path
   class="st0"
   d="m 172.91,147.78 h -4.12 v -12.92 h -7.18 v 12.92 h -4.12 V 118.8 h 4.12 v 12.39 h 7.18 V 118.8 h 4.12 z"
   id="path1031" />
		<path
   class="st0"
   d="m 185.72,140.26 v -6.91 c 0,-1.55 -0.25,-2.67 -0.74,-3.36 -0.49,-0.69 -1.21,-1.03 -2.16,-1.03 -0.94,0 -1.66,0.34 -2.15,1.02 -0.5,0.68 -0.75,1.8 -0.75,3.37 v 6.91 c 0,1.57 0.25,2.69 0.75,3.37 0.5,0.68 1.22,1.02 2.15,1.02 0.95,0 1.67,-0.34 2.16,-1.03 0.49,-0.68 0.74,-1.8 0.74,-3.36 z m -9.67,0.15 v -7.2 c 0,-2.69 0.59,-4.65 1.76,-5.87 1.18,-1.23 2.86,-1.84 5.04,-1.84 2.16,0 3.82,0.62 4.98,1.85 1.16,1.23 1.74,3.19 1.74,5.86 v 7.2 c 0,2.67 -0.58,4.63 -1.74,5.86 -1.16,1.23 -2.82,1.85 -4.98,1.85 -2.18,0 -3.86,-0.61 -5.04,-1.84 -1.17,-1.22 -1.76,-3.18 -1.76,-5.87 z"
   id="path1033" />
		<path
   class="st0"
   d="m 228.82,118.82 v 3.93 h -3.89 v -3.93 z m -0.02,7.01 v 21.95 h -3.86 v -21.95 z"
   id="path1035" />
		<path
   class="st0"
   d="m 288.67,147.78 h -4.12 l -7.98,-18.86 v 18.86 h -4.12 V 118.8 h 4.12 l 7.98,19.22 V 118.8 h 4.12 z"
   id="path1037" />
		<path
   class="st0"
   d="m 310.95,125.83 3.42,15.79 3.38,-15.79 H 322 l -5.65,21.95 h -4.01 l -5.63,-21.95 z"
   id="path1039" />
		<path
   class="st0"
   d="m 385.51,140.26 v -6.91 c 0,-1.55 -0.25,-2.67 -0.74,-3.36 -0.49,-0.69 -1.21,-1.03 -2.16,-1.03 -0.94,0 -1.66,0.34 -2.15,1.02 -0.5,0.68 -0.75,1.8 -0.75,3.37 v 6.91 c 0,1.57 0.25,2.69 0.75,3.37 0.5,0.68 1.21,1.02 2.15,1.02 0.95,0 1.67,-0.34 2.16,-1.03 0.5,-0.68 0.74,-1.8 0.74,-3.36 z m -9.66,0.15 v -7.2 c 0,-2.69 0.59,-4.65 1.76,-5.87 1.18,-1.23 2.86,-1.84 5.04,-1.84 2.16,0 3.82,0.62 4.98,1.85 1.16,1.23 1.74,3.19 1.74,5.86 v 7.2 c 0,2.67 -0.58,4.63 -1.74,5.86 -1.16,1.23 -2.82,1.85 -4.98,1.85 -2.18,0 -3.86,-0.61 -5.04,-1.84 -1.17,-1.22 -1.76,-3.18 -1.76,-5.87 z"
   id="path1041" />
		<path
   class="st0"
   d="m 396.21,125.83 v 2.1 c 0.52,-0.87 1.15,-1.5 1.9,-1.89 0.75,-0.39 1.6,-0.59 2.55,-0.59 0.57,0 1.08,0.06 1.53,0.17 v 3.95 c -0.76,-0.27 -1.48,-0.4 -2.16,-0.4 -1.09,0 -1.98,0.35 -2.66,1.04 -0.68,0.69 -1.02,1.66 -1.02,2.89 v 14.68 h -3.86 v -21.95 z"
   id="path1043" />
		<path
   class="st0"
   d="m 177.76,185.16 h -4.12 v -19.62 l -4.83,13.44 h -2.39 l -4.81,-13.32 v 19.49 h -4.12 v -28.99 h 4.12 l 6.03,16.59 6.01,-16.59 h 4.12 v 29 z"
   id="path1045" />
		<path
   class="st0"
   d="m 199.23,144.65 c 0.78,0 1.39,-0.19 1.76,-0.57 0.62,-0.61 0.95,-1.59 0.95,-4.83 v -13.42 h 3.86 v 14.89 c 0,2.46 -0.5,4.31 -1.49,5.54 -0.99,1.23 -2.69,1.85 -5.08,1.85 -2.39,0 -4.09,-0.62 -5.08,-1.85 -0.99,-1.23 -1.49,-3.08 -1.49,-5.54 v -14.89 h 3.86 v 13.42 c 0,3.24 0.33,4.22 0.95,4.83 0.37,0.38 0.98,0.57 1.76,0.57 z"
   id="path1047" />
		<path
   class="st0"
   d="m 208.62,141.42 h 3.68 c 0,2.5 1.29,3.4 3.04,3.4 1.77,0 2.95,-1 2.97,-2.9 0.02,-2.13 -2.14,-3.05 -3.93,-3.78 -3.24,-1.33 -5.62,-2.96 -5.59,-6.51 0.04,-4.16 3.27,-6.13 6.57,-6.13 3.53,0 6.55,2.03 6.49,6.76 h -3.68 c 0,-2.32 -0.99,-3.54 -2.78,-3.54 -1.8,0 -2.83,1.05 -2.84,2.92 0,1.71 1.96,2.74 3.33,3.21 4.21,1.44 6.23,3.88 6.23,6.88 0,3.89 -2.96,6.41 -6.77,6.38 -4.76,-0.02 -6.72,-3.13 -6.72,-6.69 z"
   id="path1049" />
		<path
   class="st0"
   d="m 235.95,127.64 c 0.47,-0.68 1.05,-1.21 1.73,-1.58 0.69,-0.37 1.44,-0.56 2.26,-0.56 1.77,0 3.12,0.56 4.05,1.67 0.93,1.11 1.39,2.73 1.39,4.84 v 15.77 h -3.86 v -15.69 c 0,-1.01 -0.25,-1.78 -0.75,-2.32 -0.5,-0.54 -1.15,-0.81 -1.96,-0.81 -0.81,0 -1.47,0.27 -1.96,0.82 -0.5,0.55 -0.75,1.32 -0.75,2.31 v 15.69 h -3.86 v -21.95 h 3.72 v 1.81 z"
   id="path1051" />
		<path
   class="st0"
   d="m 357.27,141.36 v -3.51 c -3.17,-0.06 -5.61,0.12 -5.63,3.58 -0.02,4.88 5.84,4.04 5.63,-0.07 z m 3.86,-9.18 v 15.61 h -3.63 v -1.93 c -1.64,2.92 -6.38,2.91 -8.31,0.51 -0.91,-1.14 -1.44,-2.88 -1.42,-4.86 0.02,-2.3 0.79,-4 2.1,-5.01 1.72,-1.33 4.7,-1.55 7.4,-1.42 v -3.15 c 0.32,-4.12 -5.78,-3.99 -5.33,0 h -3.59 c -0.55,-8.83 13.4,-8.46 12.78,0.25 z"
   id="path1053" />
		<path
   class="st0"
   d="m 257.91,133.35 c 0.15,-6 -5.83,-5.84 -5.65,-0.02 0.11,3.39 -0.19,7.3 0.69,8.44 1.05,1.36 3.25,1.29 4.18,-0.03 0.54,-0.75 0.82,-1.89 0.77,-3.33 0.01,0 0.01,-5.06 0.01,-5.06 z m -9.2,15.46 h 3.63 c -0.16,2.57 3.44,3.34 4.9,1.64 0.97,-1.14 0.69,-5.36 0.7,-6.28 -1.81,2.69 -5.87,2.64 -8.02,0.3 -1.94,-2.11 -1.51,-8.37 -1.53,-11.71 -0.02,-2.48 0.52,-4.29 1.51,-5.49 1.97,-2.39 6.44,-2.46 7.96,0.49 v -1.93 h 3.84 v 21.49 c 0,2.27 -0.56,4.08 -1.7,5.4 -3.33,3.85 -11.68,2.07 -11.29,-3.91 z"
   id="path1055" />
		<path
   class="st0"
   d="m 247.17,177.79 c 0.04,-0.87 -0.04,-6.09 0.01,-7.4 0.1,-2.62 0.69,-4.73 2.02,-5.93 1.09,-0.98 2.78,-1.57 4.72,-1.59 1.88,-0.02 3.56,0.52 4.65,1.49 1.49,1.32 2.18,3.69 2.05,6.31 h -3.78 c 0.08,-1.53 -0.27,-3.03 -1.12,-3.75 -0.45,-0.38 -1.06,-0.6 -1.75,-0.58 -0.73,0.03 -1.34,0.28 -1.77,0.67 -0.82,0.73 -1.22,1.95 -1.15,3.72 0.08,2.09 -0.47,8.68 0.75,10.28 0.49,0.65 1.23,0.99 2.14,1.02 0.91,0.03 1.67,-0.3 2.16,-0.91 0.6,-0.74 0.82,-2.12 0.75,-3.42 h 3.78 c 0.23,4.64 -1.88,7.86 -6.62,7.79 -4.82,-0.04 -6.85,-2.74 -6.84,-7.7 z"
   id="path1057" />
		<path
   class="st0"
   d="m 267.89,156.18 v 8.7 c 0.92,-1.21 2.27,-2 3.84,-2 1.81,0 3.16,0.56 4.07,1.69 0.91,1.13 1.37,2.73 1.37,4.82 v 15.77 h -3.86 v -15.69 c 0,-1.01 -0.25,-1.78 -0.75,-2.32 -0.5,-0.54 -1.15,-0.81 -1.96,-0.81 -0.81,0 -1.47,0.27 -1.96,0.81 -0.5,0.54 -0.75,1.31 -0.75,2.32 v 15.69 h -3.86 v -28.99 h 3.86 z"
   id="path1059" />
		<path
   class="st0"
   d="m 280.87,178.11 v -14.89 h 3.86 v 13.42 c 0,1.33 0.07,2.37 0.2,3.12 0.09,0.52 0.25,0.95 0.46,1.29 0.39,0.65 1.06,0.99 2.07,0.99 0.78,0 1.37,-0.18 1.74,-0.54 0.38,-0.36 0.63,-0.9 0.76,-1.63 0.13,-0.73 0.19,-1.81 0.19,-3.23 v -13.42 h 3.86 v 14.89 c 0,3.07 -0.69,4.89 -2.1,6.07 -1.03,0.86 -2.5,1.32 -4.47,1.32 -2.39,0 -4.09,-0.62 -5.08,-1.85 -0.99,-1.23 -1.49,-3.08 -1.49,-5.54 z"
   id="path1061" />
		<path
   class="st0"
   d="m 317.63,170.74 v 1.89 h 5.8 v -1.93 c 0,-1.54 -0.25,-2.65 -0.75,-3.33 -0.5,-0.68 -1.22,-1.02 -2.17,-1.02 -0.94,0 -1.65,0.34 -2.14,1.03 -0.49,0.68 -0.74,1.8 -0.74,3.36 z m 0,7.03 c 0,3.13 1.14,4.35 2.98,4.35 1.86,0 2.79,-1.19 2.79,-3.57 v -0.19 h 3.76 v 0.19 c 0,2.3 -0.57,4.03 -1.71,5.2 -1.14,1.17 -2.77,1.75 -4.88,1.75 -2.14,0 -3.79,-0.62 -4.95,-1.85 -1.24,-1.31 -1.86,-3.43 -1.86,-6.36 v -6.22 c 0,-2.77 0.57,-4.83 1.72,-6.18 1.15,-1.35 2.8,-2.02 4.96,-2.02 2.14,0 3.82,0.68 5.02,2.04 1.2,1.36 1.81,3.41 1.81,6.15 v 4.41 h -9.64 z"
   id="path1063" />
		<path
   class="st0"
   d="m 336.23,178.65 c 0,2.26 1.19,3.07 3.02,3.07 h 0.38 v 3.44 h -0.44 c -4.91,0 -6.83,-2.4 -6.83,-6.3 v -12.83 h -2.63 v -2.81 h 2.63 V 159 l 3.87,-1.64 v 5.86 h 3.84 v 2.81 h -3.84 z"
   id="path1065" />
		<path
   class="st0"
   d="m 328.35,118.82 v 3.93 h -3.89 v -3.93 z m -0.02,7.01 v 21.95 h -3.86 v -21.95 z"
   id="path1067" />
		<path
   class="st0"
   d="m 340.99,133.35 c 0.15,-6 -5.83,-5.84 -5.65,-0.02 0.11,3.39 -0.19,7.3 0.69,8.44 1.05,1.36 3.25,1.29 4.18,-0.03 0.54,-0.75 0.82,-1.89 0.77,-3.33 0.01,0 0.01,-5.06 0.01,-5.06 z m -9.2,15.46 h 3.63 c -0.16,2.57 3.44,3.34 4.9,1.64 0.97,-1.14 0.69,-5.36 0.7,-6.28 -1.81,2.69 -5.87,2.64 -8.02,0.3 -1.94,-2.11 -1.51,-8.37 -1.53,-11.71 -0.02,-2.48 0.52,-4.29 1.51,-5.49 1.97,-2.39 6.44,-2.46 7.96,0.49 v -1.93 h 3.84 v 21.49 c 0,2.27 -0.56,4.08 -1.7,5.4 -3.32,3.85 -11.67,2.07 -11.29,-3.91 z"
   id="path1069" />
		<path
   class="st0"
   d="m 197.63,178.8 h 3.68 c 0,2.5 1.29,3.4 3.04,3.4 1.77,0 2.95,-1 2.97,-2.9 0.02,-2.13 -2.14,-3.05 -3.93,-3.78 -3.24,-1.33 -5.62,-2.96 -5.59,-6.51 0.04,-4.16 3.27,-6.13 6.57,-6.13 3.53,0 6.55,2.03 6.49,6.76 h -3.68 c 0,-2.32 -0.99,-3.54 -2.78,-3.54 -1.8,0 -2.83,1.05 -2.84,2.92 0,1.71 1.96,2.74 3.33,3.21 4.21,1.44 6.23,3.88 6.23,6.88 0,3.89 -2.96,6.41 -6.77,6.38 -4.76,-0.01 -6.72,-3.13 -6.72,-6.69 z"
   id="path1071" />
		<path
   class="st0"
   d="m 213.97,178.8 h 3.68 c 0,2.5 1.29,3.4 3.04,3.4 1.77,0 2.95,-1 2.97,-2.9 0.02,-2.13 -2.14,-3.05 -3.93,-3.78 -3.24,-1.33 -5.62,-2.96 -5.59,-6.51 0.04,-4.16 3.27,-6.13 6.57,-6.13 3.53,0 6.55,2.03 6.49,6.76 h -3.68 c 0,-2.32 -0.99,-3.54 -2.78,-3.54 -1.8,0 -2.83,1.05 -2.84,2.92 0,1.71 1.96,2.74 3.33,3.21 4.21,1.44 6.23,3.88 6.23,6.88 0,3.89 -2.96,6.41 -6.77,6.38 -4.76,-0.01 -6.72,-3.13 -6.72,-6.69 z"
   id="path1073" />
		<path
   class="st0"
   d="m 297.25,178.8 h 3.68 c 0,2.5 1.29,3.4 3.04,3.4 1.77,0 2.95,-1 2.97,-2.9 0.02,-2.13 -2.14,-3.05 -3.93,-3.78 -3.24,-1.33 -5.62,-2.96 -5.59,-6.51 0.04,-4.16 3.27,-6.13 6.57,-6.13 3.53,0 6.55,2.03 6.49,6.76 h -3.68 c 0,-2.32 -0.99,-3.54 -2.78,-3.54 -1.8,0 -2.83,1.05 -2.84,2.92 0,1.71 1.96,2.74 3.33,3.21 4.21,1.44 6.23,3.88 6.23,6.88 0,3.89 -2.96,6.41 -6.77,6.38 -4.77,-0.01 -6.72,-3.13 -6.72,-6.69 z"
   id="path1075" />
		<path
   class="st0"
   d="m 355.56,178.8 h 3.68 c 0,2.5 1.29,3.4 3.04,3.4 1.77,0 2.95,-1 2.97,-2.9 0.02,-2.13 -2.14,-3.05 -3.93,-3.78 -3.24,-1.33 -5.62,-2.96 -5.59,-6.51 0.04,-4.16 3.27,-6.13 6.57,-6.13 3.53,0 6.55,2.03 6.49,6.76 h -3.68 c 0,-2.32 -0.99,-3.54 -2.78,-3.54 -1.8,0 -2.83,1.05 -2.84,2.92 0,1.71 1.96,2.74 3.33,3.21 4.21,1.44 6.23,3.88 6.23,6.88 0,3.89 -2.96,6.41 -6.77,6.38 -4.76,-0.01 -6.72,-3.13 -6.72,-6.69 z"
   id="path1077" />
		<path
   class="st0"
   d="m 349.13,178.65 c 0,2.26 1.19,3.07 3.02,3.07 h 0.38 v 3.44 h -0.44 c -4.91,0 -6.83,-2.4 -6.83,-6.3 v -12.83 h -2.63 v -2.81 h 2.63 V 159 l 3.87,-1.64 v 5.86 h 3.84 v 2.81 h -3.84 z"
   id="path1079" />
		<path
   class="st0"
   d="m 301.03,141.36 v -3.51 c -3.17,-0.06 -5.61,0.12 -5.63,3.58 -0.02,4.88 5.84,4.04 5.63,-0.07 z m 3.86,-9.18 v 15.61 h -3.63 v -1.93 c -1.64,2.92 -6.38,2.91 -8.31,0.51 -0.91,-1.14 -1.44,-2.88 -1.42,-4.86 0.02,-2.3 0.79,-4 2.1,-5.01 1.72,-1.33 4.7,-1.55 7.4,-1.42 v -3.15 c 0.32,-4.12 -5.78,-3.99 -5.33,0 h -3.59 c -0.55,-8.83 13.4,-8.46 12.78,0.25 z"
   id="path1081" />
		<path
   class="st0"
   d="m 369.74,141.27 c 0,2.26 1.19,3.07 3.02,3.07 h 0.38 v 3.44 h -0.44 c -4.91,0 -6.83,-2.4 -6.83,-6.3 v -12.83 h -2.63 v -2.81 h 2.63 v -4.22 l 3.87,-1.64 v 5.86 h 3.84 v 2.81 h -3.84 z"
   id="path1083" />
		<path
   class="st0"
   d="m 239.81,178.74 v -3.51 c -3.17,-0.06 -5.61,0.12 -5.63,3.58 -0.02,4.89 5.83,4.05 5.63,-0.07 z m 3.86,-9.18 v 15.61 h -3.63 v -1.93 c -1.64,2.92 -6.38,2.91 -8.31,0.51 -0.91,-1.14 -1.44,-2.88 -1.42,-4.86 0.02,-2.3 0.79,-4 2.1,-5.01 1.72,-1.33 4.7,-1.55 7.4,-1.42 v -3.15 c 0.32,-4.12 -5.78,-3.99 -5.33,0 h -3.59 c -0.55,-8.82 13.39,-8.45 12.78,0.25 z"
   id="path1085" />
		<path
   class="st0"
   d="m 190.53,178.74 v -3.51 c -3.17,-0.06 -5.61,0.12 -5.63,3.58 -0.02,4.89 5.84,4.05 5.63,-0.07 z m 3.87,-9.18 v 15.61 h -3.63 v -1.93 c -1.64,2.92 -6.38,2.91 -8.31,0.51 -0.91,-1.14 -1.44,-2.88 -1.42,-4.86 0.02,-2.3 0.79,-4 2.1,-5.01 1.72,-1.33 4.7,-1.55 7.4,-1.42 v -3.15 c 0.32,-4.12 -5.78,-3.99 -5.33,0 h -3.59 c -0.55,-8.82 13.39,-8.45 12.78,0.25 z"
   id="path1087" />
	</g>
</g>
<g
   id="Layer_2"
   transform="translate(-73.25,-72.9)">
</g>
</svg>
