<svg xmlns="http://www.w3.org/2000/svg" viewBox="0 0 738 144"><path d="M194.83,106.28V49.75H170.74V37.68h60.33V49.75H207v56.53Z"/><path d="M312.39,37.68h12l-16.85,68.6H296.57L281,58.69l-15.73,47.59H254.66l-17-68.6h12.11L261,85.41l15.73-47.73h8.76l15.64,47.77Z"/><path d="M361.44,107.08a35.1,35.1,0,1,1,35.17-35.17A35.18,35.18,0,0,1,361.44,107.08ZM338.87,72a22.61,22.61,0,1,0,22.61-22.61A22.65,22.65,0,0,0,338.87,72Z"/><path d="M453.91,107.08c-15.24,0-24.81-7.37-27.8-21.58h13.45c2.46,6.7,6.79,9.52,14.84,9.56,8.27,0,12.56-3.8,12.56-8.35,0-3.27-1.39-5.86-8.09-7.24l-12.52-2.6c-12.69-2.63-18.18-8.49-18.18-18.41,0-10.72,9.56-21.58,25.56-21.58,13.45,0,23.5,8,25.56,21.81H466.73c-2-6.71-6.52-9.79-13.49-9.79-7.91,0-11.89,4.2-11.8,8.67.09,4.11,2.55,6.25,8.94,7.55l12.78,2.64c12.42,2.54,17.47,7.77,17.47,18C480.63,98.33,469.64,107.08,453.91,107.08Z"/><path d="M490.69,106.28V37.68h12.15v68.6Z"/><path d="M547.4,107.08a35.1,35.1,0,1,1-.23-70.2c14.17,0,26.64,8.44,32.27,21.81H565.23a21.79,21.79,0,0,0-18-9.34A22.64,22.64,0,1,0,568,81.07H548.74V69h30.88v37.27H569.3V97C563.58,104.18,555.66,107.08,547.4,107.08Z"/><path d="M623.69,106.28,603,61.14v45.14H591V37.68h13.41L627,86.75l22.52-49.07h13.1v68.6H650.5V61.14l-20.69,45.14Z"/><path d="M681.66,106.28H668.39l29-68.6h9.25l29.45,68.6H722.77l-5-11.93H686.53Zm9.7-23.82H712.9L702,56.27Z"/><path d="M63,71.8c4.07-4.07,5.95-7.87,5.95-12.7A17.49,17.49,0,0,0,34,57.94h8.86a8.69,8.69,0,0,1,17.31,1.2c0,2.37-.89,4.52-3.35,7l-23,22.95v8.5H69.61V88.94H45.81Z" fill="#fff"/><path d="M105.76,64.56h7l7.7-7.7H95.11c-13.15,0-22.46,9-22.46,20.58A20.59,20.59,0,0,0,93.14,98a20.37,20.37,0,0,0,20.54-20.18C113.68,73.12,111.67,68,105.76,64.56Zm-12.71,25a12.08,12.08,0,0,1,0-24.16,12.08,12.08,0,1,1,0,24.16Z" fill="#fff"/><path d="M105.36,77.44A12.28,12.28,0,0,1,93.05,89.52a12.08,12.08,0,0,1,0-24.16A12.31,12.31,0,0,1,105.36,77.44ZM144,72l-9,9L81,135l-9,9-9-9L9,81,0,72l9-9L63,9l9-9,9,9,54,54ZM69.61,97.57V88.94H45.81L63,71.8c4.07-4.07,5.95-7.87,5.95-12.7A17.49,17.49,0,0,0,34,57.94h8.86a8.69,8.69,0,0,1,17.31,1.2c0,2.37-.89,4.52-3.35,7l-23,22.95v8.5Zm36.15-33h7l7.7-7.7H95.11c-13.15,0-22.46,9-22.46,20.58A20.59,20.59,0,0,0,93.14,98a20.37,20.37,0,0,0,20.54-20.18C113.68,73.12,111.67,68,105.76,64.56Z" fill="#00a5bd"/></svg>